<?xml version="1.0" encoding="UTF-8" standalone="no"?>
<!-- Created with Inkscape (http://www.inkscape.org/) -->

<svg
   width="296.39047"
   height="261.41586"
   viewBox="0 0 78.419977 69.16628"
   version="1.1"
   id="svg5"
   xml:space="preserve"
   inkscape:version="1.2.2 (b0a8486541, 2022-12-01)"
   sodipodi:docname="icon.svg"
   xmlns:inkscape="http://www.inkscape.org/namespaces/inkscape"
   xmlns:sodipodi="http://sodipodi.sourceforge.net/DTD/sodipodi-0.dtd"
   xmlns="http://www.w3.org/2000/svg"
   xmlns:svg="http://www.w3.org/2000/svg"><sodipodi:namedview
     id="namedview7"
     pagecolor="#505050"
     bordercolor="#eeeeee"
     borderopacity="1"
     inkscape:showpageshadow="0"
     inkscape:pageopacity="0"
     inkscape:pagecheckerboard="0"
     inkscape:deskcolor="#505050"
     inkscape:document-units="mm"
     showgrid="false"
     inkscape:zoom="2.0409673"
     inkscape:cx="139.39469"
     inkscape:cy="167.81259"
     inkscape:window-width="1920"
     inkscape:window-height="997"
     inkscape:window-x="0"
     inkscape:window-y="0"
     inkscape:window-maximized="1"
     inkscape:current-layer="layer1" /><defs
     id="defs2" /><g
     inkscape:label="Layer 1"
     inkscape:groupmode="layer"
     id="layer1"
     transform="translate(-0.2086675,-9.8960304)"><g
       id="g306"
       transform="translate(0.15697293,-0.01707373)"
       style="fill:#355979;fill-opacity:1"
       inkscape:export-filename="icon.png"
       inkscape:export-xdpi="96"
       inkscape:export-ydpi="96"><path
         style="fill:#355979;fill-opacity:1;stroke-width:0.0675452"
         d="m 44.687185,78.979685 c -1.921272,-0.193733 -4.429483,-0.975271 -6.690322,-2.084668 -1.861478,-0.913429 -4.691045,-2.670866 -4.691045,-2.913597 0,-0.142066 7.309733,-25.364244 7.431596,-25.642663 0.04575,-0.104524 0.110526,-0.14869 0.188262,-0.128363 0.06518,0.01705 0.573443,0.320351 1.129468,0.674011 3.905536,2.484114 7.066752,3.696737 10.805011,4.144735 1.274021,0.15268 3.760984,0.153609 5.167208,0.0019 3.403133,-0.367072 6.64236,-1.210576 10.794102,-2.810818 0.709366,-0.273417 1.124621,-0.401256 1.166702,-0.359178 0.06789,0.06789 -7.301409,25.606214 -7.458685,25.848094 -0.08958,0.137765 -1.307729,0.644708 -2.942407,1.224504 -3.118149,1.105962 -6.199076,1.85524 -8.449323,2.054863 -0.983762,0.08727 -5.55955,0.08099 -6.450567,-0.0088 z M 28.414641,71.213948 C 24.563014,68.68713 21.408155,67.38191 17.806321,66.825104 16.66925,66.649325 13.923885,66.582165 12.550492,66.696531 9.2001987,66.975518 5.5473722,67.892167 1.5004312,69.46946 0.819343,69.734914 0.253619,69.942616 0.24326671,69.931021 0.21615744,69.900657 7.6205629,44.058668 7.6886235,43.946109 c 0.1252592,-0.207155 3.5282295,-1.442122 5.6913585,-2.065443 2.079505,-0.599224 3.885836,-0.96769 6.011524,-1.226267 1.20145,-0.146149 4.26792,-0.167449 5.302298,-0.03683 4.040898,0.510276 7.135548,1.721474 11.304272,4.424318 l 0.834765,0.54123 -0.0354,0.241684 c -0.03749,0.25599 -7.363345,25.463613 -7.475661,25.723109 -0.03618,0.08359 -0.08923,0.15145 -0.117886,0.150806 -0.02866,-6.75e-4 -0.383823,-0.218789 -0.789254,-0.484768 z M 54.650103,48.928142 c -3.44059,-0.351212 -6.810448,-1.518827 -10.154422,-3.518386 -0.913333,-0.546136 -2.380276,-1.504937 -2.432975,-1.590205 -0.0292,-0.04724 6.775964,-24.222394 7.289653,-25.896288 0.06759,-0.220263 0.224072,-0.175299 0.852563,0.244986 1.960353,1.310927 4.451918,2.621674 6.228612,3.276713 1.613818,0.594988 3.50917,1.032715 5.308815,1.226056 0.977985,0.105068 3.559795,0.10486 4.626847,-4.05e-4 3.457727,-0.341001 7.30577,-1.331768 11.106194,-2.859542 1.106546,-0.444834 1.153274,-0.450181 1.153206,-0.131959 -3.3e-5,0.136041 -0.04737,0.474127 -0.105194,0.751303 -0.073,0.349948 -6.544651,22.824606 -7.163568,24.877545 -0.04827,0.160103 -0.412309,0.336342 -2.052422,0.99361 -3.697249,1.481654 -7.051958,2.339953 -10.300644,2.635411 -0.878796,0.07992 -3.539884,0.0745 -4.356665,-0.0089 z M 37.730029,40.723306 c -0.297585,-0.251291 -2.008884,-1.374756 -2.634263,-1.729389 -3.549213,-2.012648 -7.852772,-3.182964 -11.685321,-3.177721 -3.628877,0.005 -8.023195,1.038739 -13.329041,3.135689 -0.6386072,0.252387 -1.0599056,0.385279 -1.098636,0.346549 -0.068618,-0.06862 7.303989,-25.831406 7.438694,-25.993715 0.109838,-0.132346 2.284367,-0.980808 3.814359,-1.488293 4.440329,-1.472818 7.493601,-1.9819169 11.381367,-1.8977149 1.996225,0.043235 2.807113,0.1143929 3.922783,0.3442369 3.034495,0.625152 6.101594,1.991253 9.336689,4.158611 0.415887,0.278624 0.766153,0.560648 0.778368,0.626721 0.01222,0.06607 -1.657286,5.909577 -3.710005,12.985565 -3.423365,11.800784 -3.743807,12.86523 -3.872287,12.863002 -0.07704,-0.0013 -0.231258,-0.07943 -0.342707,-0.173541 z"
         id="path320" /><path
         style="fill:#355979;fill-opacity:1;stroke-width:0.0675452"
         d="m 44.61964,78.927264 c -1.22825,-0.186486 -2.317434,-0.447325 -3.512351,-0.841134 -1.29875,-0.428034 -2.104971,-0.765095 -3.422465,-1.430858 -1.662787,-0.840247 -4.311461,-2.492897 -4.311461,-2.690151 0,-0.05271 1.627922,-5.69796 3.617604,-12.54501 1.989683,-6.847051 3.663584,-12.608759 3.71978,-12.803796 0.0562,-0.195036 0.135151,-0.354612 0.175456,-0.354612 0.0403,0 0.440886,0.23863 0.890181,0.530289 5.612852,3.643571 10.407233,4.902829 16.352297,4.294978 3.167322,-0.323842 6.79826,-1.269079 10.594026,-2.757931 0.625732,-0.245438 1.150052,-0.446251 1.165155,-0.446251 0.0151,0 0.02746,0.05922 0.02746,0.131608 0,0.25236 -7.416933,25.688417 -7.507528,25.746749 -0.187834,0.120941 -2.163539,0.872348 -3.434795,1.306332 -2.864632,0.977937 -5.169228,1.536063 -7.685851,1.86136 -1.443099,0.186533 -5.434815,0.185594 -6.667505,-0.0016 z M 28.414641,71.213948 C 24.563014,68.68713 21.408155,67.38191 17.806321,66.825104 16.66925,66.649325 13.923885,66.582165 12.550492,66.696531 9.2001987,66.975518 5.5473722,67.892167 1.5004312,69.46946 0.819343,69.734914 0.253619,69.942616 0.24326671,69.931021 0.21615744,69.900657 7.6205629,44.058668 7.6886235,43.946109 c 0.1252592,-0.207155 3.5282295,-1.442122 5.6913585,-2.065443 2.079505,-0.599224 3.885836,-0.96769 6.011524,-1.226267 1.20145,-0.146149 4.26792,-0.167449 5.302298,-0.03683 4.040898,0.510276 7.135548,1.721474 11.304272,4.424318 l 0.834765,0.54123 -0.0354,0.241684 c -0.03749,0.25599 -7.363345,25.463613 -7.475661,25.723109 -0.03618,0.08359 -0.08923,0.15145 -0.117886,0.150806 -0.02866,-6.75e-4 -0.383823,-0.218789 -0.789254,-0.484768 z M 54.818966,48.862447 C 50.83889,48.492853 47.201688,47.114987 42.976414,44.376182 l -0.831061,-0.538689 0.03168,-0.236409 c 0.02549,-0.190168 6.963726,-24.734948 7.212556,-25.515198 0.0385,-0.120737 0.102904,-0.219522 0.143111,-0.219522 0.04021,0 0.486419,0.269786 0.991581,0.599526 4.478543,2.923321 8.250683,4.215216 12.771606,4.374064 4.064454,0.14281 8.851232,-0.851382 14.223021,-2.954056 0.559868,-0.219147 1.038595,-0.398449 1.063837,-0.398449 0.02525,0 0.04582,0.09878 0.04572,0.219521 0,0.196138 -7.196827,25.193939 -7.360273,25.566123 -0.07462,0.169914 -0.275422,0.266355 -2.025802,0.972971 -3.426881,1.383408 -6.960883,2.294412 -10.047726,2.590128 -1.121994,0.107485 -3.356563,0.120894 -4.375701,0.02626 z M 37.392303,40.383495 c -1.498071,-1.088329 -3.624841,-2.24773 -5.419839,-2.954607 -3.129795,-1.232526 -6.83669,-1.869066 -9.710287,-1.667431 -3.483633,0.244439 -7.234491,1.184224 -11.760287,2.946562 -0.7099291,0.276445 -1.3292342,0.502627 -1.3762335,0.502627 -0.058433,0 -0.072962,-0.06246 -0.045949,-0.197521 0.073836,-0.369178 7.3493685,-25.638254 7.3953755,-25.685311 0.08132,-0.08318 2.30839,-0.935503 3.52433,-1.348804 5.638545,-1.916552 10.488031,-2.5006777 14.765283,-1.778492 3.313736,0.559502 6.264111,1.801894 9.905603,4.171213 0.51081,0.332357 0.928746,0.647343 0.928746,0.69997 0,0.05263 -1.671744,5.856535 -3.714986,12.897573 -2.043242,7.041038 -3.714986,12.815516 -3.714986,12.832173 0,0.100813 -0.241732,-0.02925 -0.77677,-0.417952 z"
         id="path318" /><path
         style="fill:#355979;fill-opacity:1;stroke-width:0.0675452"
         d="m 45.328864,78.994566 c -0.167174,-0.03065 -0.653499,-0.11911 -1.080723,-0.196564 -3.438499,-0.623428 -6.263111,-1.808549 -9.814284,-4.117772 -0.911564,-0.592764 -0.996666,-0.664911 -0.965934,-0.818897 0.04484,-0.224681 7.321273,-25.261017 7.387201,-25.417463 0.04523,-0.107333 0.143394,-0.06229 0.827196,0.379542 4.347957,2.80941 7.848919,4.097885 12.048845,4.434393 4.163713,0.333607 9.390288,-0.650822 14.884895,-2.80358 0.641376,-0.251289 1.182845,-0.440187 1.203257,-0.419774 0.03812,0.03813 -7.291039,25.401842 -7.39218,25.581791 -0.06368,0.113307 -0.664811,0.364333 -2.373418,0.991126 -2.652255,0.972963 -5.316603,1.697372 -7.534647,2.048587 -0.741151,0.11736 -1.438733,0.246573 -1.550183,0.287148 -0.245822,0.08949 -5.186712,0.13457 -5.640025,0.05146 z M 28.414641,71.213948 C 24.563014,68.68713 21.408155,67.38191 17.806321,66.825104 16.66925,66.649325 13.923885,66.582165 12.550492,66.696531 9.2001987,66.975518 5.5473722,67.892167 1.5004312,69.46946 0.819343,69.734914 0.253619,69.942616 0.24326671,69.931021 0.21615744,69.900657 7.6205629,44.058668 7.6886235,43.946109 c 0.1252592,-0.207155 3.5282295,-1.442122 5.6913585,-2.065443 2.079505,-0.599224 3.885836,-0.96769 6.011524,-1.226267 1.20145,-0.146149 4.26792,-0.167449 5.302298,-0.03683 4.040898,0.510276 7.135548,1.721474 11.304272,4.424318 l 0.834765,0.54123 -0.0354,0.241684 c -0.03749,0.25599 -7.363345,25.463613 -7.475661,25.723109 -0.03618,0.08359 -0.08923,0.15145 -0.117886,0.150806 -0.02866,-6.75e-4 -0.383823,-0.218789 -0.789254,-0.484768 z M 54.987829,48.823284 c -0.167175,-0.0125 -0.734521,-0.08333 -1.26077,-0.157411 -3.160787,-0.444931 -6.135455,-1.553673 -9.343827,-3.482707 -1.592197,-0.957308 -2.199762,-1.390921 -2.17227,-1.55033 0.05696,-0.3303 7.253989,-25.604325 7.306292,-25.657737 0.03409,-0.03481 0.408983,0.167313 0.890347,0.480024 3.998269,2.597416 7.161751,3.837386 11.014098,4.31713 1.229962,0.15317 3.913761,0.153206 5.308246,6.7e-5 2.655191,-0.291578 5.404335,-0.930057 8.376514,-1.945417 1.321933,-0.451601 3.250369,-1.188658 3.349951,-1.280365 0.142331,-0.131079 0.189512,-0.04602 0.151666,0.273475 -0.02166,0.182912 -0.07175,0.388081 -0.111301,0.45593 -0.03955,0.06785 -1.685496,5.700701 -3.657654,12.51745 -1.972151,6.81675 -3.611784,12.442764 -3.643624,12.502255 -0.0987,0.184433 -2.726584,1.246042 -4.684591,1.892479 -2.572443,0.849293 -5.188114,1.410554 -7.504138,1.61021 -0.740407,0.06383 -3.287393,0.07964 -4.018939,0.02494 z M 37.392303,40.383495 c -1.498071,-1.088329 -3.624841,-2.24773 -5.419839,-2.954607 -3.129795,-1.232526 -6.83669,-1.869066 -9.710287,-1.667431 -3.483633,0.244439 -7.234491,1.184224 -11.760287,2.946562 -0.7099291,0.276445 -1.3292342,0.502627 -1.3762335,0.502627 -0.058433,0 -0.072962,-0.06246 -0.045949,-0.197521 0.073836,-0.369178 7.3493685,-25.638254 7.3953755,-25.685311 0.08132,-0.08318 2.30839,-0.935503 3.52433,-1.348804 5.638545,-1.916552 10.488031,-2.5006777 14.765283,-1.778492 3.313736,0.559502 6.264111,1.801894 9.905603,4.171213 0.51081,0.332357 0.928746,0.647343 0.928746,0.69997 0,0.05263 -1.671744,5.856535 -3.714986,12.897573 -2.043242,7.041038 -3.714986,12.815516 -3.714986,12.832173 0,0.100813 -0.241732,-0.02925 -0.77677,-0.417952 z"
         id="path316" /><path
         style="fill:#355979;fill-opacity:1;stroke-width:0.0675452"
         d="m 45.328864,78.994566 c -0.167174,-0.03065 -0.653499,-0.11911 -1.080723,-0.196564 -3.438499,-0.623428 -6.263111,-1.808549 -9.814284,-4.117772 -0.911564,-0.592764 -0.996666,-0.664911 -0.965934,-0.818897 0.04484,-0.224681 7.321273,-25.261017 7.387201,-25.417463 0.04523,-0.107333 0.143394,-0.06229 0.827196,0.379542 4.347957,2.80941 7.848919,4.097885 12.048845,4.434393 4.163713,0.333607 9.390288,-0.650822 14.884895,-2.80358 0.641376,-0.251289 1.182845,-0.440187 1.203257,-0.419774 0.03812,0.03813 -7.291039,25.401842 -7.39218,25.581791 -0.06368,0.113307 -0.664811,0.364333 -2.373418,0.991126 -2.652255,0.972963 -5.316603,1.697372 -7.534647,2.048587 -0.741151,0.11736 -1.438733,0.246573 -1.550183,0.287148 -0.245822,0.08949 -5.186712,0.13457 -5.640025,0.05146 z M 28.414641,71.213948 C 24.563014,68.68713 21.408155,67.38191 17.806321,66.825104 16.66925,66.649325 13.923885,66.582165 12.550492,66.696531 9.2001987,66.975518 5.5473722,67.892167 1.5004312,69.46946 0.819343,69.734914 0.253619,69.942616 0.24326671,69.931021 0.21615744,69.900657 7.6205629,44.058668 7.6886235,43.946109 c 0.1252592,-0.207155 3.5282295,-1.442122 5.6913585,-2.065443 2.079505,-0.599224 3.885836,-0.96769 6.011524,-1.226267 1.20145,-0.146149 4.26792,-0.167449 5.302298,-0.03683 4.040898,0.510276 7.135548,1.721474 11.304272,4.424318 l 0.834765,0.54123 -0.0354,0.241684 c -0.03749,0.25599 -7.363345,25.463613 -7.475661,25.723109 -0.03618,0.08359 -0.08923,0.15145 -0.117886,0.150806 -0.02866,-6.75e-4 -0.383823,-0.218789 -0.789254,-0.484768 z M 54.987829,48.823284 c -0.167175,-0.0125 -0.734521,-0.08333 -1.26077,-0.157411 -3.160787,-0.444931 -6.135455,-1.553673 -9.343827,-3.482707 -1.592197,-0.957308 -2.199762,-1.390921 -2.17227,-1.55033 0.05696,-0.3303 7.253989,-25.604325 7.306292,-25.657737 0.03409,-0.03481 0.408983,0.167313 0.890347,0.480024 3.998269,2.597416 7.161751,3.837386 11.014098,4.31713 1.229962,0.15317 3.913761,0.153206 5.308246,6.7e-5 2.655191,-0.291578 5.404335,-0.930057 8.376514,-1.945417 1.321933,-0.451601 3.250369,-1.188658 3.349951,-1.280365 0.142331,-0.131079 0.189512,-0.04602 0.151666,0.273475 -0.02166,0.182912 -0.07175,0.388081 -0.111301,0.45593 -0.03955,0.06785 -1.685496,5.700701 -3.657654,12.51745 -1.972151,6.81675 -3.611784,12.442764 -3.643624,12.502255 -0.0987,0.184433 -2.726584,1.246042 -4.684591,1.892479 -2.572443,0.849293 -5.188114,1.410554 -7.504138,1.61021 -0.740407,0.06383 -3.287393,0.07964 -4.018939,0.02494 z M 37.199534,40.151952 C 33.194713,37.248679 27.553406,35.485427 22.802539,35.652014 19.305293,35.774643 14.960555,36.84024 10.107749,38.765559 9.5896901,38.971095 9.1579533,39.13139 9.1483335,39.12177 9.138713,39.11215 10.793962,33.316005 12.826665,26.241449 l 3.695823,-12.862829 1.079897,-0.427981 c 3.826825,-1.516635 7.951864,-2.589203 10.857064,-2.82299 0.325062,-0.02616 0.591021,-0.06927 0.591021,-0.0958 0,-0.02653 0.459124,-0.069619 1.020275,-0.095749 1.126884,-0.052474 2.981255,0.0139 2.925137,0.104701 -0.01967,0.03183 0.09131,0.05786 0.246622,0.05786 0.388366,0 1.561694,0.177767 2.494941,0.378 2.902411,0.622727 5.592647,1.825208 8.866983,3.963361 0.680728,0.444517 0.921879,0.636857 0.898589,0.716707 -0.01751,0.06003 -1.661033,5.732277 -3.652276,12.605001 -1.991244,6.872724 -3.651774,12.594647 -3.690067,12.715384 -0.03829,0.120737 -0.10526,0.21655 -0.148816,0.212917 -0.04356,-0.0036 -0.409102,-0.24577 -0.812324,-0.538084 z"
         id="path314" /><path
         style="fill:#355979;fill-opacity:1;stroke-width:0.0675452"
         d="M 28.414641,71.213948 C 24.563014,68.68713 21.408155,67.38191 17.806321,66.825104 16.66925,66.649325 13.923885,66.582165 12.550492,66.696531 9.2001987,66.975518 5.5473722,67.892167 1.5004312,69.46946 0.819343,69.734914 0.253619,69.942616 0.24326671,69.931021 0.21615744,69.900657 7.6205629,44.058668 7.6886235,43.946109 c 0.1252592,-0.207155 3.5282295,-1.442122 5.6913585,-2.065443 2.079505,-0.599224 3.885836,-0.96769 6.011524,-1.226267 1.20145,-0.146149 4.26792,-0.167449 5.302298,-0.03683 4.040898,0.510276 7.135548,1.721474 11.304272,4.424318 l 0.834765,0.54123 -0.0354,0.241684 c -0.03749,0.25599 -7.363345,25.463613 -7.475661,25.723109 -0.03618,0.08359 -0.08923,0.15145 -0.117886,0.150806 -0.02866,-6.75e-4 -0.383823,-0.218789 -0.789254,-0.484768 z M 54.987829,48.823284 c -0.167175,-0.0125 -0.734521,-0.08333 -1.26077,-0.157411 -3.160787,-0.444931 -6.135455,-1.553673 -9.343827,-3.482707 -1.592197,-0.957308 -2.199762,-1.390921 -2.17227,-1.55033 0.05696,-0.3303 7.253989,-25.604325 7.306292,-25.657737 0.03409,-0.03481 0.408983,0.167313 0.890347,0.480024 3.998269,2.597416 7.161751,3.837386 11.014098,4.31713 1.229962,0.15317 3.913761,0.153206 5.308246,6.7e-5 2.655191,-0.291578 5.404335,-0.930057 8.376514,-1.945417 1.321933,-0.451601 3.250369,-1.188658 3.349951,-1.280365 0.142331,-0.131079 0.189512,-0.04602 0.151666,0.273475 -0.02166,0.182912 -0.07175,0.388081 -0.111301,0.45593 -0.03955,0.06785 -1.685496,5.700701 -3.657654,12.51745 -1.972151,6.81675 -3.611784,12.442764 -3.643624,12.502255 -0.0987,0.184433 -2.726584,1.246042 -4.684591,1.892479 -2.572443,0.849293 -5.188114,1.410554 -7.504138,1.61021 -0.740407,0.06383 -3.287393,0.07964 -4.018939,0.02494 z M 37.199534,40.151952 C 33.194713,37.248679 27.553406,35.485427 22.802539,35.652014 19.305293,35.774643 14.960555,36.84024 10.107749,38.765559 9.5896901,38.971095 9.1579533,39.13139 9.1483335,39.12177 9.138713,39.11215 10.793962,33.316005 12.826665,26.241449 l 3.695823,-12.862829 1.079897,-0.427981 c 3.826825,-1.516635 7.951864,-2.589203 10.857064,-2.82299 0.325062,-0.02616 0.591021,-0.06927 0.591021,-0.0958 0,-0.02653 0.459124,-0.069619 1.020275,-0.095749 1.126884,-0.052474 2.981255,0.0139 2.925137,0.104701 -0.01967,0.03183 0.09131,0.05786 0.246622,0.05786 0.388366,0 1.561694,0.177767 2.494941,0.378 2.902411,0.622727 5.592647,1.825208 8.866983,3.963361 0.680728,0.444517 0.921879,0.636857 0.898589,0.716707 -0.01751,0.06003 -1.661033,5.732277 -3.652276,12.605001 -1.991244,6.872724 -3.651774,12.594647 -3.690067,12.715384 -0.03829,0.120737 -0.10526,0.21655 -0.148816,0.212917 -0.04356,-0.0036 -0.409102,-0.24577 -0.812324,-0.538084 z"
         id="path312" /><path
         style="fill:#355979;fill-opacity:1;stroke-width:0.0675452"
         d="m 54.987829,48.823284 c -0.167175,-0.0125 -0.734521,-0.08333 -1.26077,-0.157411 -3.160787,-0.444931 -6.135455,-1.553673 -9.343827,-3.482707 -1.592197,-0.957308 -2.199762,-1.390921 -2.17227,-1.55033 0.05696,-0.3303 7.253989,-25.604325 7.306292,-25.657737 0.03409,-0.03481 0.408983,0.167313 0.890347,0.480024 3.998269,2.597416 7.161751,3.837386 11.014098,4.31713 1.229962,0.15317 3.913761,0.153206 5.308246,6.7e-5 2.655191,-0.291578 5.404335,-0.930057 8.376514,-1.945417 1.321933,-0.451601 3.250369,-1.188658 3.349951,-1.280365 0.142331,-0.131079 0.189512,-0.04602 0.151666,0.273475 -0.02166,0.182912 -0.07175,0.388081 -0.111301,0.45593 -0.03955,0.06785 -1.685496,5.700701 -3.657654,12.51745 -1.972151,6.81675 -3.611784,12.442764 -3.643624,12.502255 -0.0987,0.184433 -2.726584,1.246042 -4.684591,1.892479 -2.572443,0.849293 -5.188114,1.410554 -7.504138,1.61021 -0.740407,0.06383 -3.287393,0.07964 -4.018939,0.02494 z M 37.199534,40.151952 C 33.194713,37.248679 27.553406,35.485427 22.802539,35.652014 19.305293,35.774643 14.960555,36.84024 10.107749,38.765559 9.5896901,38.971095 9.1579533,39.13139 9.1483335,39.12177 9.138713,39.11215 10.793962,33.316005 12.826665,26.241449 l 3.695823,-12.862829 1.079897,-0.427981 c 3.826825,-1.516635 7.951864,-2.589203 10.857064,-2.82299 0.325062,-0.02616 0.591021,-0.06927 0.591021,-0.0958 0,-0.02653 0.459124,-0.069619 1.020275,-0.095749 1.126884,-0.052474 2.981255,0.0139 2.925137,0.104701 -0.01967,0.03183 0.09131,0.05786 0.246622,0.05786 0.388366,0 1.561694,0.177767 2.494941,0.378 2.902411,0.622727 5.592647,1.825208 8.866983,3.963361 0.680728,0.444517 0.921879,0.636857 0.898589,0.716707 -0.01751,0.06003 -1.661033,5.732277 -3.652276,12.605001 -1.991244,6.872724 -3.651774,12.594647 -3.690067,12.715384 -0.03829,0.120737 -0.10526,0.21655 -0.148816,0.212917 -0.04356,-0.0036 -0.409102,-0.24577 -0.812324,-0.538084 z"
         id="path310" /><path
         style="fill:#355979;fill-opacity:1;stroke-width:0.0675452"
         d="m 54.987829,48.823284 c -0.167175,-0.0125 -0.734521,-0.08333 -1.26077,-0.157411 -3.160787,-0.444931 -6.135455,-1.553673 -9.343827,-3.482707 -1.592197,-0.957308 -2.199762,-1.390921 -2.17227,-1.55033 0.05696,-0.3303 7.253989,-25.604325 7.306292,-25.657737 0.03409,-0.03481 0.408983,0.167313 0.890347,0.480024 3.998269,2.597416 7.161751,3.837386 11.014098,4.31713 1.229962,0.15317 3.913761,0.153206 5.308246,6.7e-5 2.655191,-0.291578 5.404335,-0.930057 8.376514,-1.945417 1.321933,-0.451601 3.250369,-1.188658 3.349951,-1.280365 0.142331,-0.131079 0.189512,-0.04602 0.151666,0.273475 -0.02166,0.182912 -0.07175,0.388081 -0.111301,0.45593 -0.03955,0.06785 -1.685496,5.700701 -3.657654,12.51745 -1.972151,6.81675 -3.611784,12.442764 -3.643624,12.502255 -0.0987,0.184433 -2.726584,1.246042 -4.684591,1.892479 -2.572443,0.849293 -5.188114,1.410554 -7.504138,1.61021 -0.740407,0.06383 -3.287393,0.07964 -4.018939,0.02494 z"
         id="path308" /></g></g></svg>
